# xmcd
#
# Track frame offsets:
#	150
#	12165
#	23725
#	34477
#	44520
#	56740
#	69955
#	80032
#	87945
#	99940
#	118390
#	128580
#	141437
#	152090
#	165462
#	177575
#	191280
#	201770
#	214852
#	229117
#
# Disc length: 3251 seconds
#
# Revision: 1
# Processed by: cddbd v1.5.1PL0 Copyright (c) Steve Scherf et al.
# Submitted via: audiograbber 1.83.01
#
DISCID=170cb114
DTITLE=Divers - Country Classics Sticks And Stones
DYEAR=1900
DGENRE=Country
TTITLE0=Elvira (Kenny Rogers)
TTITLE1=Walkin' After Midnight (Patsy Cline)
TTITLE2=Six Days On The Road (Boxcar Willie)
TTITLE3=Sticks And Stones (Donna Fargo)
TTITLE4=Luckenbach Texas (Roy Drusky)
TTITLE5=That Girl Who Waits On Tables (Freddy Fender)
TTITLE6=Fraulain (Mickey Gilley)
TTITLE7=Jambalaya (George Jones)
TTITLE8=Crying (Waylon Jennnings)
TTITLE9=Convoy (Boxcar Willie)
TTITLE10=Home (Jim Reeves)
TTITLE11=Little Blossom (Dolly Parton)
TTITLE12=If You Ain't Lovin' (Farron Young)
TTITLE13=That Heart Belongs To Me (Mickey Gilley)
TTITLE14=What Have They Done To My Song Ma (Billie Jo Spiers)
TTITLE15=Shine On Ruby Mountain (Kenny Rodgers)
TTITLE16=Pick Me Up On Your Way Down (Patsy Cline)
TTITLE17=Truck Driving Man (Boxcar Willie)
TTITLE18=Keep Off The Grass (Stonewall Jackson)
TTITLE19=Green Green Grass Of Home (Johnny Paycheck)
EXTD=
EXTT0=
EXTT1=
EXTT2=
EXTT3=
EXTT4=
EXTT5=
EXTT6=
EXTT7=
EXTT8=
EXTT9=
EXTT10=
EXTT11=
EXTT12=
EXTT13=
EXTT14=
EXTT15=
EXTT16=
EXTT17=
EXTT18=
EXTT19=
PLAYORDER=
